HIERARCHY
ROOT pelvis
{
  OFFSET 0 100 0
  CHANNELS 6 Xposition Yposition Zposition Zrotation Xrotation Yrotation
  JOINT pelvis_right_femur
  {
    OFFSET -10.78128 -3.44521 -0.5502486
    CHANNELS 3 Zrotation Xrotation Yrotation
    JOINT right_femur_tibia
    {
      OFFSET -0.8047443 -44.0398 -0.1307829
      CHANNELS 3 Zrotation Xrotation Yrotation
      JOINT right_tibia_foot
      {
        OFFSET 3.006224 -47.83518 -5
        CHANNELS 3 Zrotation Xrotation Yrotation
        End Site
        {
          OFFSET 0 -5 15
        }
      }
    }
  }
  JOINT pelvis_left_femur
  {
    OFFSET 10.78128 -3.44521 -0.5502486
    CHANNELS 3 Zrotation Xrotation Yrotation
    JOINT left_femur_tibia
    {
      OFFSET 0.8047443 -44.0398 -0.1307829
      CHANNELS 3 Zrotation Xrotation Yrotation
      JOINT left_tibia_foot
      {
        OFFSET -4.370144 -48.10324 -4.275266
        CHANNELS 3 Zrotation Xrotation Yrotation
        End Site
        {
          OFFSET 0 -5 15
        }
      }
    }
  }
  JOINT pelvis_spine1
  {
    OFFSET 0 6.468898 -3.129235
    CHANNELS 3 Zrotation Xrotation Yrotation
    JOINT spine1
    {
      OFFSET 0 23.15396 4.99043
      CHANNELS 3 Zrotation Xrotation Yrotation
      JOINT spine2
      {
        OFFSET 0 20.79997 -5.064912
        CHANNELS 3 Zrotation Xrotation Yrotation
        JOINT neck
        {
          OFFSET 0 14.38658 9.616178
          CHANNELS 3 Zrotation Xrotation Yrotation
          End Site
          {
            OFFSET 0 20 0
          }
        }
      }
      JOINT right_manubrium
      {
        OFFSET -5.722621 16.35077 3.967754
        CHANNELS 3 Zrotation Xrotation Yrotation
        JOINT right_clavicle
        {
          OFFSET -13.16364 1.694482 -4.693211
          CHANNELS 3 Zrotation Xrotation Yrotation
          JOINT right_humerus
          {
            OFFSET -28.5034 -0.3100689 -2.792744
            CHANNELS 3 Zrotation Xrotation Yrotation
            JOINT right_radius
            {
              OFFSET -25.15693 0.02248979 -1.271978
              CHANNELS 3 Zrotation Xrotation Yrotation
              End Site
              {
                OFFSET -15 0 0
              }
            }
          }
        }
      }
      JOINT left_manubrium
      {
        OFFSET 5.722621 16.35077 3.967754
        CHANNELS 3 Zrotation Xrotation Yrotation
        JOINT left_clavicle
        {
          OFFSET 13.16364 1.694482 -4.693211
          CHANNELS 3 Zrotation Xrotation Yrotation
          JOINT left_humerus
          {
            OFFSET 29.39168 -1.063119 -2.237045
            CHANNELS 3 Zrotation Xrotation Yrotation
            JOINT left_radius
            {
              OFFSET 24.59957 -0.9528479 0.9047498
              CHANNELS 3 Zrotation Xrotation Yrotation
              End Site
              {
                OFFSET 15 -0 -0
              }
            }
          }
        }
      }
    }
  }
}
MOTION
Frames: 7
Frame Time: 0.0416666666667
-1727.013 106.9064 1743.259 -9.462595 1.31474 -106.4498 -1.16469 0.2386779 -2.574696 -0 46.65477 -0 -13.45495 12.54581 1.655214 -5.789421 1.961393 -12.4585 -0 15.57615 -0 0.6453042 -12.16537 19.48827 1.391991 -2.798093 7.559058 1.499611 16.15366 -7.769293 1.16346 21.45915 1.436702 0.2201858 -19.50306 3.801908 -4.773328 -29.15949 12.82877 93.4496 16.75018 -15.36861 -0 0 23.84433 -20.29087 12.2669 7.824818 1.526618 -24.15599 -8.891619 -92.84182 11.46777 31.18023 0 0 -9.659779 8.611 15.44103 -1.505558
-1732.071 107.431 1742.27 -9.06709 1.237642 -105.9202 -1.093316 -5.778221 -2.7791 -0 41.61436 -0 -12.07445 9.822756 0.1041221 -5.718631 5.916503 -12.47142 -0 13.68733 -0 0.0623397 -14.37175 18.53516 1.785895 -2.794341 7.501856 1.956642 16.17958 -8.463375 1.492958 21.81273 0.7836041 -0.7521931 -20.5207 4.121467 -6.657823 -29.06935 12.66287 95.74178 15.15334 -17.05748 -0 0 22.6069 -19.45959 11.68192 6.666245 1.077886 -24.24516 -8.794591 -92.04253 12.57413 29.63122 0 0 -12.18463 8.150064 15.96314 -1.690489
-1736.96 107.2787 1741.241 -8.711527 1.028052 -105.5416 -0.9435139 -10.83263 -3.013246 -0 33.76328 -0 -9.955447 6.123732 -1.540964 -5.62212 9.4407 -12.21677 -0 11.9153 -0 -0.4357664 -16.50226 17.67045 2.143364 -2.746014 7.458277 2.404288 16.03849 -9.114603 1.781721 22.14346 0.2037481 -1.630864 -21.55158 4.410999 -8.555081 -28.95422 12.4546 97.87558 13.86609 -18.54207 -0 0 21.53196 -18.59432 10.8991 5.392916 0.7217744 -24.29194 -8.611904 -91.21875 13.47268 28.08345 0 0 -14.56183 7.866002 16.44001 -2.190169
-1741.862 106.5534 1740.141 -8.159612 0.6552888 -105.3056 -0.6964863 -15.17809 -3.45672 -0 25.26889 -0 -7.913444 3.031628 -2.580375 -5.698953 12.19014 -11.62267 -0 10.88578 -0 -0.1071138 -18.18535 16.94723 2.405167 -2.62313 7.409119 2.780628 15.73955 -9.643021 1.98773 22.42973 -0.1963876 -2.265315 -22.4834 4.648423 -10.1956 -28.76608 12.24039 99.62816 13.20349 -19.7412 -0 0 20.64962 -17.81063 10.0037 4.085435 0.5254444 -24.30684 -8.363587 -90.4392 13.99467 26.63809 0 0 -16.48732 7.921832 16.83844 -3.129687
-1746.934 105.4736 1738.94 -7.315552 0.2228648 -105.1495 -0.3197724 -19.00567 -4.167353 -0 17.70171 -0 -6.61615 1.712672 -2.750677 -5.953622 14.03981 -10.69724 -0 11.09123 -0 1.159262 -19.21344 16.40678 2.53611 -2.423749 7.341644 3.042201 15.3372 -10.00184 2.087994 22.6528 -0.3527478 -2.564475 -23.22293 4.828708 -11.36006 -28.48249 12.06008 100.8619 13.30888 -20.64864 -0 0 19.95796 -17.19171 9.122301 2.831478 0.5204409 -24.31517 -8.088768 -89.7712 14.06818 25.38749 0 0 -17.78121 8.396219 17.13079 -4.510481
-1752.294 104.2779 1737.599 -6.294466 -0.1155793 -105.0101 0.2160922 -22.18886 -5.029345 -0 11.79375 -0 -6.350278 2.384397 -2.218398 -6.236482 15.12535 -9.567525 -0 12.84692 -0 2.784453 -19.52567 15.92043 2.537238 -2.176347 7.260358 3.174524 14.90911 -10.18668 2.086624 22.80163 -0.268586 -2.529563 -23.72056 4.959029 -11.95881 -28.12292 11.93638 101.5554 14.10475 -21.29433 -0 0 19.45203 -16.76165 8.370468 1.71111 0.6926246 -24.34118 -7.826209 -89.26542 13.74524 24.40113 0 0 -18.42535 9.240218 17.29561 -6.18693
-1758.013 103.1814 1736.08 -5.294429 -0.2251593 -104.8619 0.9926924 -24.37376 -5.770959 -0 7.769322 -0 -7.014199 4.38344 -1.327823 -6.348502 15.62588 -8.405833 -0 16.32909 -0 3.950235 -19.07719 15.23803 2.437704 -1.92249 7.183679 3.189599 14.52663 -10.22474 2.008581 22.87812 -0.005661115 -2.239045 -23.97111 5.047078 -12.03804 -27.7394 11.86968 101.7815 15.36284 -21.70912 -0 0 19.13725 -16.49306 7.81245 0.7817421 0.9888281 -24.39412 -7.60288 -88.94533 13.16198 23.72001 0 0 -18.51292 10.30358 17.3278 -7.927192
